PathFileType	4	(X/Y/Z)	C:/Users/opensim2020/Desktop/walking_exp_matlab/subject02_walking11_straight_03.trc	
DataRate	CameraRate	NumFrames	NumMarkers	Units	OrigDataRate	OrigDataStartFrame	OrigNumFrames	
100.00	100.00	8	42	mm	100.00	2380	250	
Frame#	Time	LFHD			RFHD			LBHD			RBHD			C7			T10			CLAV			STRN			RBAK			LSHO			LUPA			LELB			LFRM			LWRA			LWRB			LFIN			RSHO			RUPA			RELB			RFRM			RWRA			RWRB			RFIN			LASI			RASI			LPSI			RPSI			LTHI			LKNE			LTIB			LANK			LHEE			LTOE			RTHI			RKNE			RTIB			RANK			RHEE			RTOE			*39			*40			*41			
		X1	Y1	Z1	X2	Y2	Z2	X3	Y3	Z3	X4	Y4	Z4	X5	Y5	Z5	X6	Y6	Z6	X7	Y7	Z7	X8	Y8	Z8	X9	Y9	Z9	X10	Y10	Z10	X11	Y11	Z11	X12	Y12	Z12	X13	Y13	Z13	X14	Y14	Z14	X15	Y15	Z15	X16	Y16	Z16	X17	Y17	Z17	X18	Y18	Z18	X19	Y19	Z19	X20	Y20	Z20	X21	Y21	Z21	X22	Y22	Z22	X23	Y23	Z23	X24	Y24	Z24	X25	Y25	Z25	X26	Y26	Z26	X27	Y27	Z27	X28	Y28	Z28	X29	Y29	Z29	X30	Y30	Z30	X31	Y31	Z31	X32	Y32	Z32	X33	Y33	Z33	X34	Y34	Z34	X35	Y35	Z35	X36	Y36	Z36	X37	Y37	Z37	X38	Y38	Z38	X39	Y39	Z39	X40	Y40	Z40	X41	Y41	Z41	X42	Y42	Z42	

1	0.000	1391.80347	-923.10864	1730.67175	1534.00781	-929.46661	1706.71619	1372.11292	-1036.61438	1633.79517	1511.66077	-1054.70276	1605.58081	1424.23682	-1076.34241	1505.24084	1414.87061	-1147.65906	1237.38660	1426.06921	-940.42059	1432.95447	1426.35889	-902.46136	1254.27405	1470.39233	-1153.73962	1337.12354	1254.75842	-980.13763	1492.97864	1163.62268	-947.43207	1299.80750	1152.25891	-904.41943	1160.99292	1166.51306	-832.21765	1049.29077	1237.32214	-738.55865	973.95947	1193.21033	-765.75330	949.48206	1205.14441	-715.45111	909.33148	1616.17188	-1022.85913	1453.40796	1683.01038	-1080.71375	1262.99243	1702.37183	-1080.09399	1118.00232	1731.23645	-1060.75781	1001.78223	1727.17419	-1012.43536	873.66986	1746.16821	-1064.40344	871.68164	1760.09534	-1031.28772	809.15533	1285.99060	-935.39148	959.13660	1543.27332	-928.30811	959.17303	1370.82251	-1140.25696	1011.79468	1485.49890	-1145.00122	1013.34448	1251.71887	-1041.39368	651.60199	1284.77148	-1106.18311	458.88861	1284.13000	-1203.76575	289.09607	1324.03882	-1252.47229	70.65150	1372.44482	-1297.06384	47.04301	1322.26025	-1100.06641	26.53346	1644.38379	-954.03271	669.86517	1623.07007	-887.76221	470.13455	1649.91931	-871.02435	286.45813	1640.26770	-820.13702	95.45615	1586.09424	-829.07050	30.64684	1664.82617	-658.52728	80.56079	1476.24292	-1040.29297	1772.98035						 
2	0.010	1394.89160	-915.93774	1729.85583	1537.00891	-922.15540	1705.81702	1375.13953	-1029.29211	1632.73169	1514.71265	-1047.22058	1604.40088	1427.48389	-1068.60706	1504.11841	1418.23608	-1139.31116	1235.96765	1428.87146	-932.55005	1432.01233	1429.05273	-894.06232	1253.46057	1473.75305	-1145.53711	1335.60205	1257.62280	-972.84888	1491.99048	1166.20886	-940.92529	1298.56580	1154.58716	-898.63544	1159.69202	1168.66699	-826.49365	1047.52649	1239.51111	-732.42523	972.65747	1195.09192	-760.45587	947.68793	1206.55420	-710.34991	907.39392	1619.16382	-1014.52765	1452.13513	1685.96899	-1072.26367	1261.75378	1704.86206	-1071.57703	1116.41516	1734.02148	-1053.83594	1000.69946	1730.29724	-1006.48999	872.04010	1749.08972	-1058.77283	870.71783	1763.15662	-1026.12952	807.70239	1288.84741	-927.32117	957.85632	1546.40723	-918.39648	958.70038	1374.64282	-1131.84875	1010.51453	1489.15295	-1136.19653	1012.06055	1254.04749	-1034.53076	650.77032	1286.42664	-1100.22473	458.43774	1285.14441	-1200.08801	290.05811	1324.13049	-1251.80701	72.00343	1372.38794	-1296.65259	48.76456	1322.19128	-1099.93005	26.46867	1646.99463	-941.23602	669.46228	1624.63660	-877.12512	469.12540	1649.90381	-862.66046	284.72934	1638.57813	-814.83075	93.09762	1584.06299	-824.88904	28.90564	1662.64929	-653.54449	76.05596	1479.38928	-1032.94824	1771.52136						 
3	0.020	1397.96179	-908.75134	1729.21558	1540.01563	-914.77942	1704.84460	1378.26672	-1021.78424	1631.59949	1517.79688	-1039.54053	1603.12781	1430.73987	-1060.79968	1502.97632	1421.82813	-1130.98218	1234.65283	1431.83020	-924.51514	1431.13074	1431.72437	-885.77771	1252.53027	1477.10962	-1137.24133	1334.19922	1260.59558	-965.37689	1490.94238	1168.97607	-934.46356	1297.36694	1156.80664	-893.15826	1158.48828	1170.94470	-821.67096	1045.71191	1240.37659	-728.09320	970.24298	1196.85876	-755.73169	945.62482	1208.15674	-705.63831	905.10529	1622.27979	-1006.20392	1451.05054	1688.97205	-1063.73682	1260.58276	1707.66296	-1063.31128	1115.33667	1736.87927	-1046.52148	999.57904	1733.32214	-1000.37665	870.41736	1752.10657	-1052.65759	869.70380	1766.27905	-1020.64642	806.28516	1291.51855	-919.43689	956.54834	1549.18555	-909.25879	957.81927	1378.56531	-1123.19226	1009.17841	1492.92432	-1127.08911	1010.62372	1256.20776	-1027.75159	650.08777	1287.98767	-1094.03833	458.05032	1286.23779	-1196.28284	291.07242	1324.16797	-1251.09155	73.57024	1372.35986	-1296.10828	50.85588	1321.97095	-1099.86182	26.40414	1649.76160	-928.58282	668.76471	1625.90967	-867.05402	467.61404	1649.65479	-855.17218	282.65964	1636.67310	-810.43323	90.56717	1581.87964	-821.66675	27.03138	1660.24768	-649.47571	71.37565	1482.61584	-1025.92896	1770.40125						 
4	0.030	1401.20288	-901.43506	1728.28125	1543.16248	-907.37659	1703.95508	1381.43030	-1014.27344	1630.48389	1520.97388	-1031.95386	1601.94092	1434.04858	-1052.96924	1501.75476	1425.52380	-1122.50024	1233.22351	1434.82666	-916.44641	1430.23340	1434.59424	-877.38428	1251.77478	1480.63220	-1128.77307	1332.76892	1263.62646	-957.89172	1489.89331	1171.89709	-928.24683	1296.24402	1159.12280	-887.98206	1157.24353	1173.10388	-816.66541	1043.86829	1242.15613	-723.01312	967.90332	1198.61755	-751.20355	943.28357	1209.64868	-701.33832	902.44818	1625.58130	-997.66022	1450.08948	1691.98804	-1055.09766	1259.38123	1710.78564	-1055.34460	1114.85706	1739.97107	-1039.08264	998.56415	1736.57483	-993.90399	869.05371	1755.10059	-1046.32410	868.74078	1769.50305	-1014.91565	804.97870	1294.84863	-910.76617	955.49158	1552.46680	-899.42236	957.38232	1382.79077	-1114.30872	1007.82489	1496.92712	-1117.85522	1009.26831	1258.52832	-1020.86676	649.48383	1289.89673	-1087.80847	457.71375	1287.42786	-1192.48987	292.33841	1324.20142	-1250.38904	75.28928	1372.35095	-1295.57434	53.17504	1321.89661	-1099.75269	26.44816	1652.04810	-916.88959	667.80695	1627.54907	-857.19202	466.39957	1649.58130	-848.23792	280.43262	1634.83276	-806.77539	88.06724	1580.63257	-820.06677	25.60220	1657.31372	-646.00592	65.94006	1485.86987	-1018.82147	1769.25769	-3356.77808	2845.83984	1034.21021			 
5	0.040	1404.33398	-894.18701	1727.53564	1546.39185	-899.95233	1703.05090	1384.66492	-1006.64679	1629.30798	1524.18896	-1024.18542	1600.69885	1437.45813	-1045.13110	1500.50781	1429.40479	-1113.96570	1231.69397	1438.05640	-908.06268	1429.44580	1437.53760	-868.82104	1251.02551	1484.22742	-1120.21313	1331.20618	1266.73633	-950.38269	1488.77991	1174.80444	-921.64258	1295.11841	1161.72083	-882.44397	1155.88501	1175.16931	-812.00641	1041.97009	1243.17786	-719.35730	964.92853	1200.32593	-747.41461	940.84583	1211.13562	-697.66901	899.50861	1628.84705	-989.23639	1449.18042	1695.32715	-1046.50220	1258.43481	1713.81604	-1046.87146	1113.94861	1743.08118	-1031.43530	997.58722	1739.88770	-987.20392	867.82312	1758.26660	-1039.70227	867.91547	1772.66992	-1008.85712	803.81219	1298.05005	-902.11694	954.49597	1556.07861	-888.99347	957.08990	1387.14014	-1105.29114	1006.44330	1501.12720	-1108.38269	1007.74939	1260.89612	-1013.69739	648.96295	1291.73254	-1081.27539	457.40326	1288.73303	-1188.56714	293.75928	1324.24207	-1249.57678	77.29169	1372.34155	-1294.72974	55.41793	1321.75854	-1099.59851	26.29724	1654.01941	-905.16174	666.59509	1629.25073	-847.95154	464.87698	1648.97339	-841.71326	277.93735	1634.28870	-803.61383	86.16025	1581.11621	-819.30066	25.86220	1653.91663	-642.06152	59.51282	1489.18640	-1011.62469	1768.08032	-3356.89111	2846.06543	1034.15918			 
6	0.050	1407.47864	-886.85358	1726.79541	1549.59155	-892.40387	1702.33228	1387.93018	-999.07880	1628.34448	1527.47961	-1016.30859	1599.57556	1440.88196	-1037.25757	1499.33289	1433.54529	-1105.23389	1230.42297	1440.97632	-900.08130	1428.56335	1441.01123	-859.70203	1250.61121	1487.84229	-1111.64746	1329.92896	1269.95251	-942.83978	1487.74561	1177.68518	-915.59650	1294.13708	1164.58264	-876.77234	1154.43518	1176.95007	-808.02509	1040.14294	1244.63330	-715.21942	961.93738	1201.74878	-743.65503	938.33173	1212.36353	-694.45416	896.43481	1632.16479	-980.64008	1448.27087	1698.77820	-1037.75537	1257.64917	1716.89783	-1038.18213	1113.09119	1746.23145	-1023.52667	996.67877	1743.09106	-980.33185	866.53143	1761.50098	-1032.72034	867.09906	1775.97693	-1002.45581	802.76904	1301.62366	-892.86292	953.64648	1559.37659	-879.35144	956.64697	1391.67017	-1096.31946	1005.10150	1505.56262	-1098.76611	1006.36401	1263.59094	-1006.00330	648.16968	1294.03442	-1074.79773	457.32059	1290.18787	-1184.51038	295.35938	1324.22510	-1248.87695	79.69435	1372.11743	-1294.05969	58.19643	1321.71631	-1099.42566	26.29077	1656.35681	-894.43182	665.66876	1631.39355	-838.93219	463.64365	1648.32227	-834.73859	276.16245	1635.57117	-798.37622	85.65553	1582.65149	-818.11169	28.20115	1651.55005	-636.67114	50.84253	1492.56921	-1004.51221	1767.14063	-3360.30786	2845.25073	1034.29175			 
7	0.060	1410.81787	-879.48938	1726.55408	1552.81287	-884.78534	1702.05322	1391.25562	-991.28711	1627.55176	1530.77124	-1008.34418	1598.73633	1444.28833	-1029.33447	1498.45190	1437.77271	-1096.58655	1229.84973	1444.07446	-891.69995	1428.00598	1444.27869	-851.06519	1250.25061	1491.46448	-1102.99512	1329.16309	1273.12561	-935.36066	1486.88647	1181.22253	-908.88574	1293.19055	1167.01990	-872.11084	1153.23145	1179.01294	-803.86401	1038.01709	1245.72241	-711.89899	958.74103	1202.99475	-740.56635	935.52911	1213.34192	-691.83490	893.06177	1635.58472	-972.19983	1447.68140	1702.33887	-1028.87598	1256.80273	1720.19556	-1029.46313	1112.36108	1749.47961	-1015.45709	995.90350	1746.59888	-972.86792	865.46893	1764.70532	-1025.48669	866.39594	1779.25330	-995.64789	801.89435	1305.08972	-883.53021	952.86938	1562.71118	-869.85492	956.35468	1396.25208	-1087.45764	1003.94263	1510.12158	-1088.90161	1005.38080	1266.11536	-998.49432	647.96802	1296.17554	-1067.90381	457.42111	1291.80920	-1180.23499	297.30585	1324.34827	-1247.67639	82.39493	1372.23914	-1293.14258	61.97092	1321.57971	-1099.35510	26.31076	1658.56775	-884.89203	665.36279	1634.10706	-829.25024	463.82727	1649.70215	-826.58698	276.45020	1637.72021	-792.28778	85.88788	1585.37390	-815.83374	29.72025	1650.30920	-632.01001	45.17732	1495.95886	-997.25256	1766.31274	-3356.90186	2845.92773	1034.10461			 
8	0.070	1414.11572	-872.14063	1726.65344	1556.14111	-877.20856	1702.05664	1394.60938	-983.49811	1627.18872	1534.18469	-1000.36395	1598.26379	1447.82581	-1021.15686	1497.99377	1441.80762	-1087.90771	1229.33569	1447.39282	-883.27063	1427.77490	1447.66516	-842.33832	1250.14233	1495.37683	-1094.38867	1328.79211	1276.33557	-927.83221	1486.24487	1184.25525	-902.41248	1292.13098	1170.05090	-866.68860	1151.87622	1181.03821	-800.21692	1036.17078	1247.27820	-708.31909	955.42047	1204.43262	-737.97321	932.62292	1214.29553	-689.50153	889.55060	1639.22327	-963.47797	1447.22632	1705.86414	-1019.81055	1256.08643	1723.55029	-1020.50024	1111.75513	1752.75903	-1007.12476	995.35718	1749.89429	-965.37427	864.64099	1767.97400	-1017.96558	865.93512	1782.62964	-988.56476	801.25586	1308.31848	-874.61133	952.23322	1565.58130	-861.36328	955.89172	1400.80615	-1078.48511	1003.04730	1514.79590	-1078.87073	1005.18024	1268.99316	-990.06549	647.40979	1298.40613	-1060.56506	457.76788	1293.46033	-1175.65063	299.69910	1324.56055	-1246.36694	85.64267	1372.65137	-1292.13794	66.32701	1321.52075	-1099.22217	26.31724	1661.39417	-876.22144	665.69159	1636.72351	-817.94135	465.49759	1654.21545	-817.24597	278.47720	1638.77307	-787.88477	85.80766	1586.74963	-814.25012	30.95614	1651.55298	-629.43823	42.16705	1499.40344	-990.03870	1765.95935	-3357.02905	2846.01025	1034.06689			 
